<mxfile host="app.diagrams.net" agent="Mozilla/5.0 (Windows NT 10.0; Win64; x64) AppleWebKit/537.36 (KHTML, like Gecko) Chrome/129.0.0.0 Safari/537.36" version="24.7.17">
  <diagram id="C5RBs43oDa-KdzZeNtuy" name="Page-1">
    <mxGraphModel dx="880" dy="1647" grid="1" gridSize="10" guides="1" tooltips="1" connect="1" arrows="1" fold="1" page="1" pageScale="1" pageWidth="827" pageHeight="1169" math="0" shadow="0">
      <root>
        <mxCell id="WIyWlLk6GJQsqaUBKTNV-0" />
        <mxCell id="WIyWlLk6GJQsqaUBKTNV-1" parent="WIyWlLk6GJQsqaUBKTNV-0" />
        <mxCell id="BlUHOqsG7W_58xlhMtPi-41" value="" style="curved=1;startArrow=none;endArrow=block;exitX=1;exitY=0.23;entryX=1;entryY=0.66;rounded=0;" edge="1" parent="WIyWlLk6GJQsqaUBKTNV-1" source="BlUHOqsG7W_58xlhMtPi-30">
          <mxGeometry relative="1" as="geometry">
            <Array as="points">
              <mxPoint x="686" y="1061" />
              <mxPoint x="686" y="354" />
            </Array>
            <mxPoint x="505.4545454545455" y="296.0454545454545" as="targetPoint" />
          </mxGeometry>
        </mxCell>
        <mxCell id="BlUHOqsG7W_58xlhMtPi-121" value="Declare Variables: potPin myServo potValue servoPosition" style="whiteSpace=wrap;strokeWidth=2;" vertex="1" parent="WIyWlLk6GJQsqaUBKTNV-1">
          <mxGeometry x="82" y="122" width="238" height="87" as="geometry" />
        </mxCell>
        <mxCell id="BlUHOqsG7W_58xlhMtPi-122" value="setup" style="whiteSpace=wrap;strokeWidth=2;" vertex="1" parent="WIyWlLk6GJQsqaUBKTNV-1">
          <mxGeometry x="152" y="259" width="98" height="52" as="geometry" />
        </mxCell>
        <mxCell id="BlUHOqsG7W_58xlhMtPi-123" value="myServo.attach 9" style="whiteSpace=wrap;strokeWidth=2;" vertex="1" parent="WIyWlLk6GJQsqaUBKTNV-1">
          <mxGeometry x="108" y="361" width="186" height="52" as="geometry" />
        </mxCell>
        <mxCell id="BlUHOqsG7W_58xlhMtPi-124" value="Repeat loop" style="whiteSpace=wrap;strokeWidth=2;" vertex="1" parent="WIyWlLk6GJQsqaUBKTNV-1">
          <mxGeometry x="129" y="463" width="145" height="52" as="geometry" />
        </mxCell>
        <mxCell id="BlUHOqsG7W_58xlhMtPi-125" value="potValue = analogRead potPin" style="whiteSpace=wrap;strokeWidth=2;" vertex="1" parent="WIyWlLk6GJQsqaUBKTNV-1">
          <mxGeometry x="20" y="565" width="218" height="70" as="geometry" />
        </mxCell>
        <mxCell id="BlUHOqsG7W_58xlhMtPi-126" value="servoPosition = map" style="whiteSpace=wrap;strokeWidth=2;" vertex="1" parent="WIyWlLk6GJQsqaUBKTNV-1">
          <mxGeometry x="28" y="685" width="203" height="52" as="geometry" />
        </mxCell>
        <mxCell id="BlUHOqsG7W_58xlhMtPi-127" value="myServo.write servoPosition" style="whiteSpace=wrap;strokeWidth=2;" vertex="1" parent="WIyWlLk6GJQsqaUBKTNV-1">
          <mxGeometry x="46" y="787" width="167" height="70" as="geometry" />
        </mxCell>
        <mxCell id="BlUHOqsG7W_58xlhMtPi-128" value="delay 15ms" style="whiteSpace=wrap;strokeWidth=2;" vertex="1" parent="WIyWlLk6GJQsqaUBKTNV-1">
          <mxGeometry x="132" y="906" width="138" height="52" as="geometry" />
        </mxCell>
        <mxCell id="BlUHOqsG7W_58xlhMtPi-129" value="" style="curved=1;startArrow=none;endArrow=block;exitX=0.5;exitY=1;entryX=0.5;entryY=0;rounded=0;" edge="1" parent="WIyWlLk6GJQsqaUBKTNV-1" target="BlUHOqsG7W_58xlhMtPi-121">
          <mxGeometry relative="1" as="geometry">
            <Array as="points" />
            <mxPoint x="201.5" y="72" as="sourcePoint" />
          </mxGeometry>
        </mxCell>
        <mxCell id="BlUHOqsG7W_58xlhMtPi-130" value="" style="curved=1;startArrow=none;endArrow=block;exitX=0.5;exitY=1;entryX=0.5;entryY=0;rounded=0;" edge="1" parent="WIyWlLk6GJQsqaUBKTNV-1" source="BlUHOqsG7W_58xlhMtPi-121" target="BlUHOqsG7W_58xlhMtPi-122">
          <mxGeometry relative="1" as="geometry">
            <Array as="points" />
          </mxGeometry>
        </mxCell>
        <mxCell id="BlUHOqsG7W_58xlhMtPi-131" value="" style="curved=1;startArrow=none;endArrow=block;exitX=0.5;exitY=1;entryX=0.5;entryY=0;rounded=0;" edge="1" parent="WIyWlLk6GJQsqaUBKTNV-1" source="BlUHOqsG7W_58xlhMtPi-122" target="BlUHOqsG7W_58xlhMtPi-123">
          <mxGeometry relative="1" as="geometry">
            <Array as="points" />
          </mxGeometry>
        </mxCell>
        <mxCell id="BlUHOqsG7W_58xlhMtPi-132" value="" style="curved=1;startArrow=none;endArrow=block;exitX=0.5;exitY=1;entryX=0.5;entryY=0;rounded=0;" edge="1" parent="WIyWlLk6GJQsqaUBKTNV-1" source="BlUHOqsG7W_58xlhMtPi-123" target="BlUHOqsG7W_58xlhMtPi-124">
          <mxGeometry relative="1" as="geometry">
            <Array as="points" />
          </mxGeometry>
        </mxCell>
        <mxCell id="BlUHOqsG7W_58xlhMtPi-133" value="" style="curved=1;startArrow=none;endArrow=block;exitX=0.24;exitY=1;entryX=0.5;entryY=0;rounded=0;" edge="1" parent="WIyWlLk6GJQsqaUBKTNV-1" source="BlUHOqsG7W_58xlhMtPi-124" target="BlUHOqsG7W_58xlhMtPi-125">
          <mxGeometry relative="1" as="geometry">
            <Array as="points">
              <mxPoint x="129" y="540" />
            </Array>
          </mxGeometry>
        </mxCell>
        <mxCell id="BlUHOqsG7W_58xlhMtPi-134" value="" style="curved=1;startArrow=none;endArrow=block;exitX=0.5;exitY=1;entryX=0.5;entryY=0;rounded=0;" edge="1" parent="WIyWlLk6GJQsqaUBKTNV-1" source="BlUHOqsG7W_58xlhMtPi-125" target="BlUHOqsG7W_58xlhMtPi-126">
          <mxGeometry relative="1" as="geometry">
            <Array as="points" />
          </mxGeometry>
        </mxCell>
        <mxCell id="BlUHOqsG7W_58xlhMtPi-135" value="" style="curved=1;startArrow=none;endArrow=block;exitX=0.5;exitY=1;entryX=0.5;entryY=0;rounded=0;" edge="1" parent="WIyWlLk6GJQsqaUBKTNV-1" source="BlUHOqsG7W_58xlhMtPi-126" target="BlUHOqsG7W_58xlhMtPi-127">
          <mxGeometry relative="1" as="geometry">
            <Array as="points" />
          </mxGeometry>
        </mxCell>
        <mxCell id="BlUHOqsG7W_58xlhMtPi-136" value="" style="curved=1;startArrow=none;endArrow=block;exitX=0.5;exitY=0.99;entryX=0.23;entryY=0.01;rounded=0;" edge="1" parent="WIyWlLk6GJQsqaUBKTNV-1" source="BlUHOqsG7W_58xlhMtPi-127" target="BlUHOqsG7W_58xlhMtPi-128">
          <mxGeometry relative="1" as="geometry">
            <Array as="points">
              <mxPoint x="129" y="881" />
            </Array>
          </mxGeometry>
        </mxCell>
        <mxCell id="BlUHOqsG7W_58xlhMtPi-137" value="" style="curved=1;startArrow=none;endArrow=block;exitX=0.77;exitY=0.01;entryX=0.75;entryY=1;rounded=0;" edge="1" parent="WIyWlLk6GJQsqaUBKTNV-1" source="BlUHOqsG7W_58xlhMtPi-128" target="BlUHOqsG7W_58xlhMtPi-124">
          <mxGeometry relative="1" as="geometry">
            <Array as="points">
              <mxPoint x="273" y="881" />
              <mxPoint x="273" y="540" />
            </Array>
          </mxGeometry>
        </mxCell>
        <mxCell id="BlUHOqsG7W_58xlhMtPi-138" value="Start" style="strokeWidth=2;html=1;shape=mxgraph.flowchart.start_2;whiteSpace=wrap;" vertex="1" parent="WIyWlLk6GJQsqaUBKTNV-1">
          <mxGeometry x="131" y="-30" width="140" height="100" as="geometry" />
        </mxCell>
      </root>
    </mxGraphModel>
  </diagram>
</mxfile>
